<?xml version="1.0" encoding="UTF-8" standalone="yes"?>
<svg xmlns="http://www.w3.org/2000/svg" xmlns:xlink="http://www.w3.org/1999/xlink" width="237.631pt" height="243.618pt" version="1.1" viewBox="-580.070 1299.726 237.631 243.618">
  <!--
	Exported with Concepts: Smarter Sketching
	Version: 2189 on iOS 16.6
	https://concepts.app/
	-->
  <title>E2A43472-BFBD-4A70-A384-E0C94C945507</title>
  <desc>Drawing exported from Concepts: Smarter Sketching</desc>
  <defs></defs>
  <g id="Pen" opacity="1.000">
    <path id="STROKE_1abd4a58-30e0-4d97-989c-a0f24cabb172" opacity="1.000" fill="none" stroke="#000000" stroke-width="5.899" stroke-opacity="1.000" stroke-linecap="round" stroke-linejoin="round" d="M -385.353 1305.914 Q -383.574 1306.710 -383.382 1306.826 Q -383.191 1306.942 -382.908 1306.997 Q -382.626 1307.052 -378.688 1308.977 Q -374.751 1310.902 -370.336 1314.388 Q -365.921 1317.875 -363.917 1319.478 Q -361.914 1321.081 -361.210 1321.930 Q -360.505 1322.779 -359.216 1324.792 Q -357.927 1326.806 -357.034 1328.240 Q -356.142 1329.674 -355.827 1330.216 Q -355.512 1330.758 -354.322 1332.250 Q -353.133 1333.742 -351.055 1337.017 Q -348.977 1340.293 -348.625 1343.427 Q -348.274 1346.560 -349.859 1349.323 Q -351.444 1352.085 -352.326 1352.874 Q -353.207 1353.663 -354.127 1354.215 Q -355.047 1354.766 -356.143 1355.277 Q -357.240 1355.788 -357.277 1355.785 Q -357.314 1355.781 -360.860 1357.051 Q -364.406 1358.321 -366.201 1359.602 Q -367.997 1360.884 -368.676 1362.044 Q -369.356 1363.204 -369.702 1366.546 Q -370.049 1369.888 -369.644 1374.054 Q -369.240 1378.221 -369.190 1380.894 Q -369.140 1383.567 -370.065 1386.388 Q -370.990 1389.209 -371.458 1390.608 Q -371.926 1392.008 -372.191 1393.080 Q -372.455 1394.152 -372.509 1394.674 Q -372.562 1395.197 -372.671 1395.481 Q -372.780 1395.765 -372.799 1402.644 Q -372.818 1409.523 -371.037 1417.141 L -371.000 1417.211 Q -371.000 1418.239 -372.170 1420.243 Q -373.340 1422.247 -374.540 1423.659 Q -375.740 1425.072 -376.449 1425.633 Q -377.157 1426.194 -378.064 1426.793 Q -378.971 1427.392 -381.582 1428.806 Q -384.192 1430.219 -385.541 1431.013 Q -386.890 1431.807 -389.190 1433.759 Q -391.491 1435.711 -392.831 1437.638 Q -394.170 1439.566 -394.584 1442.669 Q -394.997 1445.773 -394.335 1449.696 Q -393.673 1453.619 -392.720 1455.889 Q -391.768 1458.158 -391.241 1459.557 Q -390.714 1460.956 -390.664 1461.003 Q -390.615 1461.050 -389.226 1465.548 Q -387.838 1470.045 -387.422 1474.054 Q -387.007 1478.062 -387.778 1479.973 Q -388.550 1481.883 -390.879 1484.249 Q -393.208 1486.616 -394.679 1487.600 Q -396.150 1488.583 -396.845 1488.779 Q -397.539 1488.974 -398.367 1489.101 Q -399.195 1489.228 -400.503 1489.259 Q -401.811 1489.291 -403.917 1489.302 Q -406.022 1489.314 -413.567 1488.892 Q -421.112 1488.470 -425.173 1488.071 Q -429.235 1487.672 -431.424 1486.889 Q -433.612 1486.105 -435.334 1484.850 Q -437.055 1483.595 -438.428 1482.292 Q -439.802 1480.990 -440.192 1480.660 Q -440.582 1480.329 -442.120 1478.926 Q -443.657 1477.522 -446.012 1475.742 Q -448.368 1473.962 -454.221 1472.770 Q -460.074 1471.578 -465.596 1471.278 Q -471.119 1470.977 -474.901 1471.592 Q -478.682 1472.207 -480.489 1472.875 Q -482.296 1473.543 -484.128 1474.962 Q -485.960 1476.382 -487.057 1477.843 Q -488.153 1479.303 -488.746 1480.316 Q -489.338 1481.329 -489.583 1481.691 Q -489.828 1482.054 -492.079 1487.312 Q -494.330 1492.571 -495.980 1496.685 Q -497.630 1500.799 -500.113 1503.519 Q -502.597 1506.239 -506.949 1508.025 Q -511.301 1509.812 -513.533 1510.715 Q -515.765 1511.619 -517.083 1512.326 Q -518.401 1513.033 -520.731 1513.289 Q -523.062 1513.544 -523.859 1513.369 Q -524.656 1513.193 -524.834 1513.201 Q -525.012 1513.208 -525.401 1513.059 Q -525.791 1512.910 -530.670 1512.609 Q -535.548 1512.309 -539.161 1513.487 Q -542.775 1514.665 -544.580 1515.890 Q -546.385 1517.116 -546.896 1517.605 Q -547.406 1518.094 -550.310 1520.876 Q -553.214 1523.658 -555.172 1525.639 Q -557.131 1527.619 -558.877 1529.370 Q -560.624 1531.121 -563.576 1531.934 Q -566.529 1532.747 -568.103 1533.041 Q -569.677 1533.336 -570.299 1533.569 Q -570.921 1533.802 -571.767 1534.397 Q -572.612 1534.992 -573.951 1537.226 "></path>
    <circle id="STROKE_cd0f593f-d099-480f-b7a1-920c7fc0fb73" opacity="1.000" fill="#000000" stroke="#000000" stroke-width="0.1" stroke-opacity="1.000" fill-opacity="1.000" cx="-542.087" cy="1357.661" r="5.838"></circle>
    <circle id="STROKE_242f036e-3b34-4c96-b085-81d02815a953" opacity="1.000" fill="#000000" stroke="#000000" stroke-width="0.1" stroke-opacity="1.000" fill-opacity="1.000" cx="-518.473" cy="1357.887" r="5.838"></circle>
    <circle id="STROKE_3a8fb2ef-2018-4a3a-8da0-86fd6dd79d92" opacity="1.000" fill="#000000" stroke="#000000" stroke-width="0.1" stroke-opacity="1.000" fill-opacity="1.000" cx="-498.029" cy="1358.474" r="5.838"></circle>
    <circle id="STROKE_d5782377-abf8-4190-85e0-5af60f024196" opacity="1.000" fill="#000000" stroke="#000000" stroke-width="0.1" stroke-opacity="1.000" fill-opacity="1.000" cx="-475.805" cy="1357.412" r="5.838"></circle>
    <circle id="STROKE_697ce793-fa04-4af3-831c-7cab959a488d" opacity="1.000" fill="#000000" stroke="#000000" stroke-width="0.1" stroke-opacity="1.000" fill-opacity="1.000" cx="-457.108" cy="1357.412" r="5.838"></circle>
    <circle id="STROKE_ed8c55d0-589e-4b23-8575-75464e167c69" opacity="1.000" fill="#000000" stroke="#000000" stroke-width="0.1" stroke-opacity="1.000" fill-opacity="1.000" cx="-435.337" cy="1358.474" r="5.838"></circle>
    <circle id="STROKE_47a96b71-c8bf-4d93-b9e6-ce72b9827a94" opacity="1.000" fill="#000000" stroke="#000000" stroke-width="0.1" stroke-opacity="1.000" fill-opacity="1.000" cx="-419.001" cy="1357.774" r="5.838"></circle>
    <circle id="STROKE_9b2d915c-322e-47d8-9746-9efa536cf86a" opacity="1.000" fill="#000000" stroke="#000000" stroke-width="0.1" stroke-opacity="1.000" fill-opacity="1.000" cx="-401.501" cy="1358.113" r="5.838"></circle>
    <circle id="STROKE_ba44fb24-f66e-49a1-9097-bc0dc87fcc66" opacity="1.000" fill="#000000" stroke="#000000" stroke-width="0.1" stroke-opacity="1.000" fill-opacity="1.000" cx="-542.087" cy="1383.397" r="5.838"></circle>
    <circle id="STROKE_ce48da3a-02fc-4830-8149-f18b53e9e705" opacity="1.000" fill="#000000" stroke="#000000" stroke-width="0.1" stroke-opacity="1.000" fill-opacity="1.000" cx="-521.870" cy="1382.222" r="5.838"></circle>
    <circle id="STROKE_e878d988-106d-418e-83e1-e116a323297d" opacity="1.000" fill="#000000" stroke="#000000" stroke-width="0.1" stroke-opacity="1.000" fill-opacity="1.000" cx="-501.781" cy="1382.809" r="5.838"></circle>
    <circle id="STROKE_952661ce-1492-4527-bdbd-0a7e04d02494" opacity="1.000" fill="#000000" stroke="#000000" stroke-width="0.1" stroke-opacity="1.000" fill-opacity="1.000" cx="-476.970" cy="1383.736" r="5.838"></circle>
    <circle id="STROKE_cbbbfb26-7a19-442d-8381-a34e3853e84e" opacity="1.000" fill="#000000" stroke="#000000" stroke-width="0.1" stroke-opacity="1.000" fill-opacity="1.000" cx="-461.087" cy="1384.098" r="5.838"></circle>
    <circle id="STROKE_1ed0dee3-5fc1-48f8-9465-a04faf57411f" opacity="1.000" fill="#000000" stroke="#000000" stroke-width="0.1" stroke-opacity="1.000" fill-opacity="1.000" cx="-440.513" cy="1382.809" r="5.838"></circle>
    <circle id="STROKE_c7e0e7fa-4574-434d-8dba-b20a2279b387" opacity="1.000" fill="#000000" stroke="#000000" stroke-width="0.1" stroke-opacity="1.000" fill-opacity="1.000" cx="-423.239" cy="1384.323" r="5.838"></circle>
    <circle id="STROKE_6a48d9a1-7fb0-4893-a45c-abb39bae64f3" opacity="1.000" fill="#000000" stroke="#000000" stroke-width="0.1" stroke-opacity="1.000" fill-opacity="1.000" cx="-405.382" cy="1383.397" r="5.838"></circle>
    <circle id="STROKE_dd5f68bf-4dcf-4370-849f-0ac1217ac860" opacity="1.000" fill="#000000" stroke="#000000" stroke-width="0.1" stroke-opacity="1.000" fill-opacity="1.000" cx="-544.449" cy="1413.833" r="5.838"></circle>
    <circle id="STROKE_48598cc9-d4c1-4989-b470-7b247c34bd53" opacity="1.000" fill="#000000" stroke="#000000" stroke-width="0.1" stroke-opacity="1.000" fill-opacity="1.000" cx="-525.169" cy="1410.669" r="5.838"></circle>
    <circle id="STROKE_99a769a7-4666-422c-8093-28304593c9c2" opacity="1.000" fill="#000000" stroke="#000000" stroke-width="0.1" stroke-opacity="1.000" fill-opacity="1.000" cx="-505.404" cy="1412.070" r="5.838"></circle>
    <circle id="STROKE_a4edcae1-ecf2-4608-9ad7-910d17f8b8a5" opacity="1.000" fill="#000000" stroke="#000000" stroke-width="0.1" stroke-opacity="1.000" fill-opacity="1.000" cx="-482.016" cy="1411.596" r="5.838"></circle>
    <circle id="STROKE_a050a597-a81a-4648-98db-31065762ab93" opacity="1.000" fill="#000000" stroke="#000000" stroke-width="0.1" stroke-opacity="1.000" fill-opacity="1.000" cx="-463.933" cy="1411.257" r="5.838"></circle>
    <circle id="STROKE_66ed9fa7-efd3-4e0b-84bf-9f7f0eb35d26" opacity="1.000" fill="#000000" stroke="#000000" stroke-width="0.1" stroke-opacity="1.000" fill-opacity="1.000" cx="-444.039" cy="1410.534" r="5.838"></circle>
    <circle id="STROKE_2aa61ac9-1d2b-4040-8969-b3b0d10497fa" opacity="1.000" fill="#000000" stroke="#000000" stroke-width="0.1" stroke-opacity="1.000" fill-opacity="1.000" cx="-543.155" cy="1434.982" r="5.838"></circle>
    <circle id="STROKE_cf5bdcbd-274e-4647-8213-b191d0b21815" opacity="1.000" fill="#000000" stroke="#000000" stroke-width="0.1" stroke-opacity="1.000" fill-opacity="1.000" cx="-526.237" cy="1433.807" r="5.838"></circle>
    <circle id="STROKE_d9e4f043-d678-491e-806c-30c7454e2afa" opacity="1.000" fill="#000000" stroke="#000000" stroke-width="0.1" stroke-opacity="1.000" fill-opacity="1.000" cx="-506.116" cy="1432.632" r="5.838"></circle>
    <circle id="STROKE_900f02a8-d981-4aac-8032-068d858a73d7" opacity="1.000" fill="#000000" stroke="#000000" stroke-width="0.1" stroke-opacity="1.000" fill-opacity="1.000" cx="-545.031" cy="1460.741" r="5.838"></circle>
    <circle id="STROKE_9829c372-7f32-49a6-ac2d-bf85110960c9" opacity="1.000" fill="#000000" stroke="#000000" stroke-width="0.1" stroke-opacity="1.000" fill-opacity="1.000" cx="-527.887" cy="1460.605" r="5.838"></circle>
    <circle id="STROKE_44016dea-17aa-473f-8832-b1b380a4ba51" opacity="1.000" fill="#000000" stroke="#000000" stroke-width="0.1" stroke-opacity="1.000" fill-opacity="1.000" cx="-508.251" cy="1460.741" r="5.838"></circle>
  </g>
</svg>